<svg xmlns="http://www.w3.org/2000/svg" xmlns:xlink="http://www.w3.org/1999/xlink" width="500" zoomAndPan="magnify" viewBox="0 0 375 374.999991" height="500" preserveAspectRatio="xMidYMid meet" version="1.2"><g id="6c1d269297"><path style=" stroke:none;fill-rule:nonzero;fill:#000000;fill-opacity:1;" d="M 330.746094 236.230469 L 370.09375 196.941406 C 370.628906 196.40625 371.105469 195.824219 371.523438 195.195312 C 371.945312 194.570312 372.296875 193.90625 372.585938 193.210938 C 372.875 192.511719 373.09375 191.792969 373.238281 191.054688 C 373.386719 190.3125 373.460938 189.566406 373.460938 188.8125 C 373.460938 188.058594 373.386719 187.308594 373.238281 186.570312 C 373.09375 185.832031 372.875 185.113281 372.585938 184.414062 C 372.296875 183.71875 371.945312 183.054688 371.523438 182.425781 C 371.105469 181.800781 370.628906 181.21875 370.09375 180.683594 L 330.746094 141.394531 C 330.308594 140.96875 329.835938 140.589844 329.324219 140.257812 C 328.8125 139.921875 328.273438 139.644531 327.707031 139.414062 C 327.140625 139.1875 326.554688 139.015625 325.957031 138.902344 C 325.355469 138.789062 324.75 138.734375 324.140625 138.738281 C 323.527344 138.742188 322.925781 138.804688 322.324219 138.925781 C 321.726562 139.046875 321.148438 139.226562 320.582031 139.460938 C 320.019531 139.695312 319.484375 139.984375 318.976562 140.324219 C 318.46875 140.664062 318 141.046875 317.566406 141.480469 C 317.136719 141.910156 316.75 142.378906 316.410156 142.886719 C 316.070312 143.390625 315.78125 143.925781 315.546875 144.488281 C 315.3125 145.050781 315.132812 145.632812 315.007812 146.230469 C 314.886719 146.828125 314.824219 147.429688 314.820312 148.039062 C 314.816406 148.652344 314.871094 149.253906 314.984375 149.855469 C 315.101562 150.453125 315.269531 151.035156 315.5 151.601562 C 315.726562 152.167969 316.007812 152.707031 316.339844 153.214844 C 316.675781 153.726562 317.054688 154.199219 317.480469 154.636719 L 342.324219 179.445312 L -0.609375 179.445312 C -1.226562 179.445312 -1.835938 179.503906 -2.441406 179.625 C -3.042969 179.746094 -3.632812 179.921875 -4.199219 180.15625 C -4.769531 180.394531 -5.308594 180.679688 -5.820312 181.023438 C -6.332031 181.363281 -6.808594 181.753906 -7.242188 182.1875 C -7.679688 182.621094 -8.066406 183.097656 -8.410156 183.605469 C -8.75 184.117188 -9.039062 184.65625 -9.277344 185.226562 C -9.511719 185.792969 -9.691406 186.378906 -9.808594 186.984375 C -9.929688 187.585938 -9.988281 188.195312 -9.988281 188.808594 C -9.988281 189.425781 -9.929688 190.035156 -9.808594 190.636719 C -9.691406 191.242188 -9.511719 191.824219 -9.277344 192.394531 C -9.039062 192.960938 -8.75 193.503906 -8.410156 194.011719 C -8.066406 194.523438 -7.679688 194.996094 -7.242188 195.433594 C -6.808594 195.867188 -6.332031 196.253906 -5.820312 196.597656 C -5.308594 196.9375 -4.769531 197.226562 -4.199219 197.460938 C -3.632812 197.699219 -3.042969 197.875 -2.441406 197.996094 C -1.835938 198.117188 -1.226562 198.175781 -0.609375 198.175781 L 342.324219 198.175781 L 317.480469 222.988281 C 317.050781 223.421875 316.667969 223.898438 316.328125 224.40625 C 315.992188 224.917969 315.707031 225.457031 315.476562 226.023438 C 315.246094 226.589844 315.074219 227.175781 314.957031 227.777344 C 314.839844 228.375 314.78125 228.984375 314.785156 229.59375 C 314.785156 230.207031 314.847656 230.8125 314.96875 231.414062 C 315.089844 232.011719 315.269531 232.59375 315.503906 233.160156 C 315.742188 233.722656 316.027344 234.261719 316.371094 234.769531 C 316.710938 235.277344 317.097656 235.75 317.53125 236.179688 C 317.964844 236.613281 318.4375 237 318.945312 237.339844 C 319.453125 237.683594 319.992188 237.96875 320.558594 238.203125 C 321.125 238.441406 321.707031 238.617188 322.308594 238.738281 C 322.910156 238.859375 323.515625 238.921875 324.128906 238.925781 C 324.742188 238.925781 325.347656 238.871094 325.949219 238.753906 C 326.550781 238.636719 327.136719 238.464844 327.703125 238.234375 C 328.269531 238 328.8125 237.71875 329.324219 237.382812 C 329.835938 237.046875 330.308594 236.664062 330.746094 236.234375 Z M 330.746094 236.230469 "/></g></svg>