<svg width="148" height="66" viewBox="0 0 148 66" fill="none" xmlns="http://www.w3.org/2000/svg">
<path fill-rule="evenodd" clip-rule="evenodd" d="M136.848 6.06674C136.884 6.12815 136.909 6.17168 136.912 6.27021C136.964 8.19125 136.329 9.17423 135.621 11.6525L128.735 34.8897C128.061 36.9606 127.611 38.5755 127.011 40.6959L123.58 52.3266C122.214 51.4119 111.388 39.6432 109.488 37.3712C108.406 36.1219 105.842 33.3256 104.932 32.245C106.282 31.8844 126.404 14.9593 128.879 12.8005C130.208 11.6411 131.445 10.6911 132.821 9.57017C133.847 8.7343 136.251 6.95852 136.848 6.06674ZM11.6948 6.06674L33.4137 24.153C34.1735 24.7465 34.7143 25.169 35.4141 25.7386C38.1462 27.996 40.7166 30.1952 43.611 32.2446C42.9777 33.1414 40.3496 35.8222 39.0545 37.3712C37.1303 39.673 26.3491 51.3986 24.9633 52.3266L14.6387 17.4665C14.3408 16.401 11.127 7.04284 11.6948 6.06674ZM11.6948 6.06674L0.578247 9.65265C0.741847 9.96565 3.00337 14.8617 3.80533 16.4661C4.95466 18.7643 6.15348 20.9796 7.27393 23.3974L10.6192 30.4519L14.0855 37.3849L24.4533 58.2157C25.5311 60.8269 26.6035 62.9148 27.8321 65.2363C28.9342 64.4985 31.9473 59.8 33.06 58.2716L48.2725 36.5481C50.6554 38.1433 52.6044 39.9287 54.8385 41.8163L67.8852 52.4375C70.1188 54.3251 72.0682 56.1105 74.4508 57.7057L90.3218 44.5297C91.4656 43.5091 92.5228 42.8153 93.7047 41.8168C95.9383 39.9287 97.8877 38.1433 100.27 36.5481L110.311 50.8918C111.12 52.1213 111.972 53.267 112.824 54.4754L117.843 61.649C118.59 62.7012 119.847 64.658 120.711 65.2363L144.618 16.7053C145.499 14.9419 147.579 11.3084 147.965 9.65265C147.965 9.65265 137.549 5.88893 136.848 6.06674C135.891 6.32245 133.348 8.05515 132.332 8.72238L100.987 28.3003L75.1679 0.687655C75.5277 2.03495 84.1806 14.0231 85.6686 16.0069C86.702 17.3849 96.2325 31.2886 96.3255 31.5274C94.7294 31.8995 81.9479 40.3274 79.8463 41.5854L74.4508 45.1543C72.3427 43.7429 53.6548 31.8624 52.2172 31.5274C52.8684 29.0885 72.746 3.04221 73.3752 0.687655C72.7428 1.22199 68.0534 6.27204 66.9733 7.55426L47.5553 28.2999L29.6418 17.1663C28.2156 16.3121 26.7341 15.3415 25.2516 14.3847L16.4268 8.86536C15.3879 8.19447 12.7149 6.33895 11.6948 6.06674Z" fill="white"/>
</svg>
