<svg xmlns="http://www.w3.org/2000/svg" xmlns:xlink="http://www.w3.org/1999/xlink" width="500" zoomAndPan="magnify" viewBox="0 0 375 374.999991" height="500" preserveAspectRatio="xMidYMid meet" version="1.2"><defs><clipPath id="064bda8399"><path d="M 9.140625 0 L 366 0 L 366 375 L 9.140625 375 Z M 9.140625 0 "/></clipPath></defs><g id="efa9c3d4ff"><path style=" stroke:none;fill-rule:nonzero;fill:#ffffff;fill-opacity:1;" d="M 187.511719 92.816406 C 148.105469 92.816406 116.160156 126.367188 116.160156 167.753906 C 116.160156 209.144531 148.105469 242.695312 187.511719 242.695312 C 226.917969 242.695312 258.855469 209.144531 258.855469 167.753906 C 258.855469 126.367188 226.917969 92.816406 187.511719 92.816406 "/><g clip-rule="nonzero" clip-path="url(#064bda8399)"><path style=" stroke:none;fill-rule:nonzero;fill:#ffffff;fill-opacity:1;" d="M 306.003906 316.835938 C 290.203125 278.265625 257.03125 254.140625 187.402344 254.140625 C 117.863281 254.140625 84.691406 278.203125 68.863281 316.6875 C 36.65625 284.039062 16.617188 238.226562 16.617188 187.5 C 16.617188 88.367188 93.128906 8.003906 187.511719 8.003906 C 281.890625 8.003906 358.402344 88.367188 358.402344 187.5 C 358.402344 238.308594 338.304688 284.183594 306.003906 316.835938 Z M 187.511719 0.148438 C 89 0.148438 9.140625 84.03125 9.140625 187.5 C 9.140625 241.617188 30.988281 290.378906 65.925781 324.582031 C 97.78125 355.769531 140.523438 374.851562 187.511719 374.851562 C 234.414062 374.851562 277.09375 355.832031 308.9375 324.734375 C 343.964844 290.527344 365.882812 241.703125 365.882812 187.5 C 365.882812 84.03125 286.019531 0.148438 187.511719 0.148438 "/></g></g></svg>