<svg xmlns="http://www.w3.org/2000/svg" xmlns:xlink="http://www.w3.org/1999/xlink" width="980" zoomAndPan="magnify" viewBox="0 0 735 519.750007" height="693" preserveAspectRatio="xMidYMid meet" version="1.2"><g id="dfdffa90c0"><path style=" stroke:none;fill-rule:evenodd;fill:#ffffff;fill-opacity:1;" d="M 486.652344 105.054688 C 486.71875 105.167969 486.765625 105.253906 486.773438 105.441406 C 486.871094 109.097656 485.660156 110.96875 484.3125 115.6875 L 471.203125 159.933594 C 469.917969 163.875 469.0625 166.953125 467.917969 170.988281 L 461.386719 193.136719 C 458.785156 191.394531 438.171875 168.984375 434.554688 164.660156 C 432.496094 162.28125 427.613281 156.957031 425.878906 154.898438 C 428.449219 154.210938 466.765625 121.984375 471.476562 117.875 C 474.007812 115.667969 476.363281 113.859375 478.984375 111.722656 C 480.9375 110.132812 485.511719 106.75 486.652344 105.054688 Z M 248.347656 105.054688 L 289.703125 139.492188 C 291.148438 140.621094 292.179688 141.425781 293.511719 142.511719 C 298.714844 146.808594 303.609375 150.996094 309.121094 154.898438 C 307.914062 156.605469 302.910156 161.710938 300.445312 164.660156 C 296.78125 169.042969 276.253906 191.367188 273.613281 193.136719 L 253.953125 126.757812 C 253.386719 124.730469 247.265625 106.910156 248.347656 105.050781 M 248.347656 105.050781 C 248.347656 105.050781 227.183594 111.878906 227.183594 111.878906 C 227.492188 112.476562 231.800781 121.800781 233.328125 124.855469 C 235.515625 129.230469 237.796875 133.449219 239.929688 138.050781 L 246.300781 151.484375 C 248.519531 155.921875 250.585938 160.054688 252.902344 164.683594 L 272.640625 204.347656 C 274.695312 209.320312 276.738281 213.296875 279.074219 217.714844 C 281.175781 216.3125 286.910156 207.363281 289.03125 204.457031 L 317.996094 163.089844 C 322.53125 166.128906 326.246094 169.527344 330.496094 173.125 L 355.339844 193.347656 C 359.59375 196.941406 363.304688 200.339844 367.839844 203.378906 L 398.0625 178.289062 C 400.238281 176.347656 402.253906 175.023438 404.503906 173.125 C 408.753906 169.527344 412.46875 166.128906 417.003906 163.089844 L 436.121094 190.402344 C 437.664062 192.746094 439.285156 194.925781 440.90625 197.226562 L 450.464844 210.886719 C 451.886719 212.890625 454.28125 216.617188 455.925781 217.714844 L 501.445312 125.308594 C 503.125 121.953125 507.082031 115.035156 507.816406 111.878906 C 507.816406 111.878906 487.984375 104.714844 486.652344 105.050781 C 484.828125 105.539062 479.984375 108.839844 478.050781 110.109375 L 418.371094 147.386719 L 369.207031 94.8125 C 369.890625 97.375 386.367188 120.203125 389.199219 123.980469 C 391.167969 126.605469 409.316406 153.078125 409.492188 153.53125 C 406.453125 154.242188 382.117188 170.289062 378.117188 172.683594 L 367.839844 179.480469 C 363.828125 176.792969 328.242188 154.167969 325.507812 153.53125 C 326.746094 148.886719 364.59375 99.292969 365.792969 94.8125 C 364.589844 95.828125 355.660156 105.445312 353.605469 107.886719 L 316.628906 147.386719 L 282.523438 126.1875 C 279.804688 124.5625 276.984375 122.710938 274.164062 120.890625 L 257.359375 110.382812 C 255.378906 109.105469 250.292969 105.570312 248.347656 105.054688 "/><path style=" stroke:none;fill-rule:evenodd;fill:#ffffff;fill-opacity:1;" d="M 369.207031 94.8125 L 369.207031 94.128906 L 368.410156 94.695312 Z M 369.207031 94.8125 "/><path style=" stroke:none;fill-rule:evenodd;fill:#ffffff;fill-opacity:1;" d="M 365.792969 94.8125 L 366.476562 94.8125 L 365.90625 94.015625 Z M 365.792969 94.8125 "/><path style=" stroke:none;fill-rule:nonzero;fill:#ffffff;fill-opacity:1;" d="M 109.765625 409.90625 L 109.765625 402.148438 C 119.6875 401.582031 126.578125 399.375 130.480469 395.601562 C 134.335938 391.832031 136.289062 385.375 136.289062 376.144531 L 136.289062 233.554688 L 114.964844 233.554688 C 104.214844 233.554688 95.546875 236.199219 88.960938 241.53125 C 82.332031 246.863281 76.78125 255.746094 72.320312 268.183594 L 64.300781 268.183594 L 70.542969 225.796875 L 228.339844 225.796875 L 234.582031 268.183594 L 226.824219 268.183594 C 222.359375 255.832031 216.769531 246.992188 210.136719 241.617188 C 203.507812 236.242188 194.753906 233.554688 183.917969 233.554688 L 161.816406 233.554688 L 161.816406 376.144531 C 161.816406 385.375 163.722656 391.875 167.535156 395.691406 C 171.347656 399.503906 178.152344 401.671875 187.992188 402.148438 L 187.992188 409.90625 Z M 109.765625 409.90625 "/><path style=" stroke:none;fill-rule:nonzero;fill:#ffffff;fill-opacity:1;" d="M 253.078125 278.273438 L 253.078125 313.640625 L 242.277344 313.640625 L 242.277344 226.675781 L 265.183594 226.675781 C 273.71875 226.675781 280.808594 228.960938 286.429688 233.535156 C 292.074219 238.105469 294.886719 244.460938 294.886719 252.578125 C 294.886719 258.472656 293.332031 263.445312 290.207031 267.515625 C 287.125 271.5625 282.929688 274.542969 277.644531 276.410156 C 282.003906 281.421875 290.101562 293.816406 301.933594 313.640625 L 288.84375 313.640625 C 277.160156 293.503906 269.777344 281.714844 266.691406 278.273438 Z M 253.078125 268.960938 L 265.183594 268.960938 C 270.972656 268.960938 275.441406 267.535156 278.566406 264.703125 C 281.710938 261.832031 283.285156 257.78125 283.285156 252.578125 C 283.285156 247.378906 281.710938 243.351562 278.566406 240.519531 C 275.441406 237.667969 270.972656 236.238281 265.183594 236.238281 L 253.078125 236.238281 Z M 346.609375 315.152344 C 340.316406 315.152344 334.675781 313.976562 329.683594 311.648438 C 324.671875 309.277344 320.621094 306.132812 317.539062 302.1875 C 311.328125 294.132812 308.226562 284.484375 308.226562 273.242188 C 308.226562 259.144531 312.292969 247.609375 320.433594 238.632812 C 328.550781 229.675781 339.332031 225.183594 352.777344 225.183594 C 359.070312 225.183594 364.714844 226.359375 369.683594 228.710938 C 374.675781 231.039062 378.683594 234.183594 381.722656 238.105469 C 388.015625 246.183594 391.164062 255.832031 391.164062 267.054688 C 391.164062 281.171875 387.09375 292.726562 378.933594 301.683594 C 370.796875 310.660156 360.015625 315.152344 346.609375 315.152344 Z M 352.253906 234.605469 C 341.851562 234.605469 333.835938 238 328.238281 244.820312 C 322.636719 251.59375 319.824219 261.117188 319.824219 273.367188 C 319.824219 282.367188 322.238281 290.042969 327.039062 296.398438 C 331.863281 302.773438 338.597656 305.964844 347.261719 305.964844 C 357.644531 305.964844 365.613281 302.566406 371.195312 295.789062 C 376.796875 288.992188 379.585938 279.472656 379.585938 267.222656 C 379.585938 258.222656 377.195312 250.546875 372.390625 244.167969 C 367.628906 237.792969 360.917969 234.605469 352.253906 234.605469 Z M 469.195312 294.132812 L 469.195312 226.675781 L 480.015625 226.675781 L 480.015625 313.640625 L 469.570312 313.640625 L 418.347656 246.035156 L 417.699219 246.035156 L 417.699219 313.640625 L 406.894531 313.640625 L 406.894531 226.675781 L 417.339844 226.675781 L 468.5625 294.132812 Z M 561.195312 294.132812 L 561.195312 226.675781 L 572.015625 226.675781 L 572.015625 313.640625 L 561.570312 313.640625 L 510.347656 246.035156 L 509.699219 246.035156 L 509.699219 313.640625 L 498.894531 313.640625 L 498.894531 226.675781 L 509.339844 226.675781 L 560.5625 294.132812 Z M 626.136719 315.152344 C 619.84375 315.152344 614.199219 313.976562 609.207031 311.648438 C 604.195312 309.277344 600.144531 306.132812 597.0625 302.1875 C 590.851562 294.132812 587.75 284.484375 587.75 273.242188 C 587.75 259.144531 591.816406 247.609375 599.957031 238.632812 C 608.074219 229.675781 618.855469 225.183594 632.300781 225.183594 C 638.59375 225.183594 644.238281 226.359375 649.207031 228.710938 C 654.199219 231.039062 658.207031 234.183594 661.25 238.105469 C 667.542969 246.183594 670.6875 255.832031 670.6875 267.054688 C 670.6875 281.171875 666.617188 292.726562 658.457031 301.683594 C 650.320312 310.660156 639.539062 315.152344 626.136719 315.152344 Z M 631.777344 234.605469 C 621.375 234.605469 613.359375 238 607.761719 244.820312 C 602.160156 251.59375 599.347656 261.117188 599.347656 273.367188 C 599.347656 282.367188 601.761719 290.042969 606.5625 296.398438 C 611.390625 302.773438 618.121094 305.964844 626.785156 305.964844 C 637.167969 305.964844 645.140625 302.566406 650.71875 295.789062 C 656.320312 288.992188 659.109375 279.472656 659.109375 267.222656 C 659.109375 258.222656 656.71875 250.546875 651.914062 244.167969 C 647.152344 237.792969 640.441406 234.605469 631.777344 234.605469 "/><path style=" stroke:none;fill-rule:nonzero;fill:#ffffff;fill-opacity:1;" d="M 216.386719 403.117188 C 219.949219 403.117188 223.515625 402.050781 227.089844 399.933594 L 229.246094 404.390625 C 225.085938 407.015625 220.644531 408.328125 215.914062 408.328125 C 211.1875 408.328125 207.4375 406.828125 204.664062 403.847656 C 201.890625 400.851562 200.507812 396.53125 200.507812 390.886719 C 200.507812 385.246094 201.941406 380.800781 204.800781 377.558594 C 207.683594 374.304688 211.496094 372.683594 216.25 372.683594 C 220.570312 372.683594 223.945312 374.019531 226.410156 376.691406 C 227.449219 377.769531 228.328125 379.351562 229.046875 381.433594 C 229.777344 383.511719 230.136719 385.960938 230.136719 388.796875 L 227.832031 391.394531 L 206.816406 391.394531 C 206.953125 399.203125 210.148438 403.117188 216.386719 403.117188 Z M 223.898438 386.71875 C 223.898438 383.945312 223.179688 381.71875 221.730469 380.046875 C 220.308594 378.351562 218.425781 377.507812 216.0625 377.507812 C 213.699219 377.507812 211.707031 378.339844 210.085938 380.007812 C 208.453125 381.65625 207.460938 383.894531 207.101562 386.71875 Z M 251.226562 372.683594 C 254.554688 372.683594 257.921875 373.425781 261.324219 374.910156 L 259.46875 379.515625 C 256.941406 378.425781 254.257812 377.878906 251.410156 377.878906 C 248.5625 377.878906 246.3125 378.945312 244.640625 381.074219 C 242.980469 383.203125 242.152344 386.320312 242.152344 390.429688 C 242.152344 394.539062 243.019531 397.683594 244.753906 399.859375 C 246.496094 402.027344 248.773438 403.117188 251.582031 403.117188 C 254.417969 403.117188 257.339844 402.421875 260.359375 401.050781 L 261.769531 405.949219 C 258.304688 407.535156 254.789062 408.328125 251.226562 408.328125 C 246.621094 408.328125 242.871094 406.65625 239.960938 403.3125 C 237.078125 399.972656 235.628906 395.664062 235.628906 390.394531 C 235.628906 385.121094 237.078125 380.851562 239.960938 377.597656 C 242.871094 374.316406 246.621094 372.683594 251.226562 372.683594 Z M 297.648438 381.816406 L 297.648438 407.433594 L 291.3125 407.433594 L 291.3125 382.113281 C 291.3125 380.824219 290.804688 379.835938 289.789062 379.15625 C 288.773438 378.449219 287.425781 378.101562 285.753906 378.101562 C 282.226562 378.101562 278.589844 379.367188 274.839844 381.890625 L 274.839844 407.433594 L 268.527344 407.433594 L 268.527344 373.574219 L 272.535156 373.574219 L 274.382812 377.433594 C 278.207031 374.265625 282.339844 372.683594 286.808594 372.683594 C 290.113281 372.683594 292.746094 373.523438 294.703125 375.21875 C 296.671875 376.902344 297.648438 379.105469 297.648438 381.816406 Z M 321.917969 377.507812 C 320.039062 377.507812 318.417969 377.929688 317.042969 378.773438 C 315.695312 379.625 314.691406 380.714844 314.046875 382.039062 C 312.847656 384.5625 312.253906 387.261719 312.253906 390.144531 C 312.253906 399.042969 315.347656 403.5 321.535156 403.5 C 323.429688 403.5 325.039062 403.078125 326.363281 402.25 C 327.710938 401.40625 328.726562 400.320312 329.429688 398.96875 C 330.605469 396.496094 331.203125 393.796875 331.203125 390.886719 C 331.203125 381.964844 328.105469 377.507812 321.917969 377.507812 Z M 321.917969 372.683594 C 327.425781 372.683594 331.425781 374.390625 333.9375 377.804688 C 336.472656 381.222656 337.734375 385.675781 337.734375 391.171875 C 337.734375 395.144531 336.695312 398.808594 334.617188 402.164062 C 333.480469 403.996094 331.769531 405.480469 329.480469 406.617188 C 327.214844 407.757812 324.492188 408.328125 321.324219 408.328125 C 315.890625 408.328125 311.929688 406.691406 309.445312 403.425781 C 306.96875 400.144531 305.730469 395.765625 305.730469 390.28125 C 305.730469 387.074219 306.238281 384.351562 307.253906 382.125 C 308.269531 379.886719 309.34375 378.164062 310.484375 376.964844 C 311.621094 375.738281 313.179688 374.722656 315.160156 373.917969 C 317.140625 373.089844 319.394531 372.683594 321.917969 372.683594 Z M 345.84375 354.117188 L 351.90625 354.117188 L 351.90625 407.433594 L 345.84375 407.433594 Z M 376.203125 377.507812 C 374.320312 377.507812 372.699219 377.929688 371.324219 378.773438 C 369.976562 379.625 368.972656 380.714844 368.332031 382.039062 C 367.128906 384.5625 366.535156 387.261719 366.535156 390.144531 C 366.535156 399.042969 369.628906 403.5 375.816406 403.5 C 377.710938 403.5 379.320312 403.078125 380.644531 402.25 C 381.992188 401.40625 383.007812 400.320312 383.714844 398.96875 C 384.890625 396.496094 385.484375 393.796875 385.484375 390.886719 C 385.484375 381.964844 382.390625 377.507812 376.203125 377.507812 Z M 376.203125 372.683594 C 381.710938 372.683594 385.707031 374.390625 388.21875 377.804688 C 390.757812 381.222656 392.019531 385.675781 392.019531 391.171875 C 392.019531 395.144531 390.980469 398.808594 388.898438 402.164062 C 387.761719 403.996094 386.054688 405.480469 383.765625 406.617188 C 381.5 407.757812 378.777344 408.328125 375.609375 408.328125 C 370.175781 408.328125 366.214844 406.691406 363.726562 403.425781 C 361.25 400.144531 360.011719 395.765625 360.011719 390.28125 C 360.011719 387.074219 360.519531 384.351562 361.535156 382.125 C 362.550781 379.886719 363.628906 378.164062 364.765625 376.964844 C 365.90625 375.738281 367.464844 374.722656 369.445312 373.917969 C 371.425781 373.089844 373.675781 372.683594 376.203125 372.683594 Z M 411.476562 397.867188 C 410.335938 397.867188 409.246094 397.792969 408.207031 397.632812 C 406.980469 400.007812 406.363281 401.570312 406.363281 402.300781 C 406.363281 402.65625 406.808594 402.953125 407.6875 403.214844 L 416.746094 405.207031 C 420.953125 406.148438 423.949219 407.25 425.71875 408.5 C 427.515625 409.773438 428.40625 411.644531 428.40625 414.105469 C 428.40625 416.582031 427.539062 418.660156 425.804688 420.355469 C 422.441406 423.722656 417.488281 425.40625 410.96875 425.40625 C 406.945312 425.40625 403.480469 424.664062 400.558594 423.164062 C 397.625 421.679688 396.164062 419.550781 396.164062 416.792969 C 396.164062 414.019531 398.144531 410.828125 402.117188 407.210938 C 400.632812 406.679688 399.890625 405.863281 399.890625 404.773438 C 399.890625 403.671875 401.351562 400.960938 404.273438 396.667969 C 400.027344 394.847656 397.898438 391.011719 397.898438 385.15625 C 397.898438 381.890625 399.046875 379.03125 401.339844 376.582031 C 403.652344 374.117188 407.03125 372.894531 411.476562 372.894531 C 414.050781 372.894531 416.300781 373.265625 418.230469 374.019531 L 428.617188 372.832031 L 428.617188 377.804688 L 423.058594 377.804688 C 424.347656 379.886719 424.988281 382.523438 424.988281 385.714844 C 424.988281 388.90625 423.851562 391.730469 421.574219 394.179688 C 419.296875 396.644531 415.929688 397.867188 411.476562 397.867188 Z M 419.050781 386.285156 C 419.050781 380.132812 416.550781 377.0625 411.550781 377.0625 C 409.554688 377.0625 407.949219 377.582031 406.722656 378.625 C 404.792969 380.304688 403.824219 382.398438 403.824219 384.898438 C 403.824219 387.398438 404.421875 389.488281 405.597656 391.171875 C 406.796875 392.855469 408.703125 393.699219 411.324219 393.699219 C 413.949219 393.699219 415.894531 392.894531 417.144531 391.285156 C 418.417969 389.675781 419.050781 388.003906 419.050781 386.285156 Z M 402.117188 415.828125 C 402.117188 417.410156 402.984375 418.625 404.703125 419.453125 C 406.449219 420.308594 408.703125 420.726562 411.476562 420.726562 C 414.257812 420.726562 416.832031 420.171875 419.199219 419.058594 C 421.574219 417.941406 422.761719 416.421875 422.761719 414.488281 C 422.761719 413.5 422.191406 412.695312 421.042969 412.078125 C 419.902344 411.457031 417.921875 410.851562 415.113281 410.269531 L 406.425781 408.328125 C 403.554688 411.199219 402.117188 413.699219 402.117188 415.828125 Z M 441.835938 365.589844 C 441.054688 366.394531 440.089844 366.804688 438.949219 366.804688 C 437.824219 366.804688 436.859375 366.394531 436.054688 365.589844 C 435.25 364.773438 434.855469 363.796875 434.855469 362.65625 C 434.855469 361.519531 435.261719 360.542969 436.089844 359.738281 C 436.921875 358.90625 437.875 358.5 438.949219 358.5 C 440.039062 358.5 440.992188 358.90625 441.796875 359.738281 C 442.625 360.542969 443.035156 361.519531 443.035156 362.65625 C 443.035156 363.796875 442.636719 364.773438 441.835938 365.589844 Z M 435.832031 373.574219 L 442.144531 373.574219 L 442.144531 407.433594 L 435.832031 407.433594 Z M 471.996094 387.164062 L 471.996094 383.90625 C 471.996094 379.886719 469.917969 377.878906 465.757812 377.878906 C 462.503906 377.878906 459.085938 378.945312 455.523438 381.074219 L 453.355469 376.617188 C 457.515625 373.996094 461.996094 372.683594 466.796875 372.683594 C 470.164062 372.683594 472.921875 373.535156 475.078125 375.257812 C 477.230469 376.953125 478.308594 379.589844 478.308594 383.164062 L 478.308594 407.433594 L 474.296875 407.433594 L 472.429688 402.980469 C 470.84375 404.601562 468.964844 405.902344 466.796875 406.878906 C 464.617188 407.84375 462.640625 408.328125 460.867188 408.328125 C 457.800781 408.328125 455.347656 407.484375 453.503906 405.800781 C 451.660156 404.128906 450.746094 401.914062 450.746094 399.179688 C 450.746094 391.171875 457.824219 387.164062 471.996094 387.164062 Z M 459.667969 394.367188 C 458.726562 395.207031 458.097656 395.960938 457.761719 396.628906 C 457.453125 397.300781 457.292969 398.164062 457.292969 399.21875 C 457.292969 400.28125 457.75 401.199219 458.652344 401.976562 C 459.570312 402.730469 460.769531 403.117188 462.265625 403.117188 C 465.375 403.117188 468.617188 401.730469 471.996094 398.96875 L 471.996094 391.53125 C 465.757812 391.644531 461.648438 392.597656 459.667969 394.367188 Z M 545.734375 395.925781 L 545.734375 356.121094 L 552.121094 356.121094 L 552.121094 407.433594 L 545.957031 407.433594 L 515.734375 367.546875 L 515.351562 367.546875 L 515.351562 407.433594 L 508.976562 407.433594 L 508.976562 356.121094 L 515.140625 356.121094 L 545.363281 395.925781 Z M 581.601562 387.164062 L 581.601562 383.90625 C 581.601562 379.886719 579.523438 377.878906 575.363281 377.878906 C 572.109375 377.878906 568.691406 378.945312 565.128906 381.074219 L 562.960938 376.617188 C 567.121094 373.996094 571.601562 372.683594 576.402344 372.683594 C 579.769531 372.683594 582.527344 373.535156 584.683594 375.257812 C 586.835938 376.953125 587.914062 379.589844 587.914062 383.164062 L 587.914062 407.433594 L 583.902344 407.433594 L 582.035156 402.980469 C 580.449219 404.601562 578.570312 405.902344 576.402344 406.878906 C 574.226562 407.84375 572.246094 408.328125 570.476562 408.328125 C 567.40625 408.328125 564.953125 407.484375 563.109375 405.800781 C 561.265625 404.128906 560.351562 401.914062 560.351562 399.179688 C 560.351562 391.171875 567.429688 387.164062 581.601562 387.164062 Z M 569.273438 394.367188 C 568.332031 395.207031 567.703125 395.960938 567.367188 396.628906 C 567.058594 397.300781 566.898438 398.164062 566.898438 399.21875 C 566.898438 400.28125 567.355469 401.199219 568.257812 401.976562 C 569.175781 402.730469 570.375 403.117188 571.875 403.117188 C 574.980469 403.117188 578.222656 401.730469 581.601562 398.96875 L 581.601562 391.53125 C 575.363281 391.644531 571.253906 392.597656 569.273438 394.367188 Z M 612.121094 407.433594 L 605.140625 407.433594 L 593.320312 373.574219 L 599.71875 373.574219 L 608.484375 400.679688 L 608.765625 400.679688 L 617.542969 373.574219 L 623.929688 373.574219 Z M 648.210938 387.164062 L 648.210938 383.90625 C 648.210938 379.886719 646.132812 377.878906 641.972656 377.878906 C 638.71875 377.878906 635.300781 378.945312 631.738281 381.074219 L 629.570312 376.617188 C 633.730469 373.996094 638.210938 372.683594 643.011719 372.683594 C 646.378906 372.683594 649.140625 373.535156 651.292969 375.257812 C 653.445312 376.953125 654.523438 379.589844 654.523438 383.164062 L 654.523438 407.433594 L 650.511719 407.433594 L 648.644531 402.980469 C 647.058594 404.601562 645.179688 405.902344 643.011719 406.878906 C 640.835938 407.84375 638.855469 408.328125 637.085938 408.328125 C 634.015625 408.328125 631.566406 407.484375 629.71875 405.800781 C 627.875 404.128906 626.960938 401.914062 626.960938 399.179688 C 626.960938 391.171875 634.039062 387.164062 648.210938 387.164062 Z M 635.882812 394.367188 C 634.941406 395.207031 634.3125 395.960938 633.976562 396.628906 C 633.667969 397.300781 633.507812 398.164062 633.507812 399.21875 C 633.507812 400.28125 633.964844 401.199219 634.867188 401.976562 C 635.785156 402.730469 636.984375 403.117188 638.484375 403.117188 C 641.589844 403.117188 644.832031 401.730469 648.210938 398.96875 L 648.210938 391.53125 C 641.972656 391.644531 637.863281 392.597656 635.882812 394.367188 Z M 664.632812 354.117188 L 670.699219 354.117188 L 670.699219 407.433594 L 664.632812 407.433594 Z M 664.632812 354.117188 "/></g></svg>